<svg xmlns="http://www.w3.org/2000/svg" viewBox="0 0 128 128">
  <defs>
    <linearGradient id="a" x1="0%" y1="0%" x2="100%" y2="100%">
      <stop offset="0%" stop-color="#5eead4"/>
      <stop offset="100%" stop-color="#0d9488"/>
    </linearGradient>
  </defs>
  <line x1="22" y1="36" x2="62" y2="24" stroke="#2dd4bf" stroke-width="1.5" opacity="0.25"/>
  <line x1="22" y1="36" x2="62" y2="56" stroke="#2dd4bf" stroke-width="1.5" opacity="0.25"/>
  <line x1="22" y1="64" x2="62" y2="24" stroke="#2dd4bf" stroke-width="1.5" opacity="0.25"/>
  <line x1="22" y1="64" x2="62" y2="56" stroke="#2dd4bf" stroke-width="1.5" opacity="0.25"/>
  <line x1="22" y1="64" x2="62" y2="88" stroke="#2dd4bf" stroke-width="1.5" opacity="0.25"/>
  <line x1="22" y1="92" x2="62" y2="56" stroke="#2dd4bf" stroke-width="1.5" opacity="0.25"/>
  <line x1="22" y1="92" x2="62" y2="88" stroke="#2dd4bf" stroke-width="1.5" opacity="0.25"/>
  <line x1="70" y1="24" x2="106" y2="44" stroke="#2dd4bf" stroke-width="1.5" opacity="0.25"/>
  <line x1="70" y1="56" x2="106" y2="44" stroke="#2dd4bf" stroke-width="1.5" opacity="0.25"/>
  <line x1="70" y1="56" x2="106" y2="84" stroke="#2dd4bf" stroke-width="1.5" opacity="0.25"/>
  <line x1="70" y1="88" x2="106" y2="84" stroke="#2dd4bf" stroke-width="1.5" opacity="0.25"/>
  <circle cx="22"  cy="36" r="8"  fill="url(#a)" opacity="0.8"/>
  <circle cx="22"  cy="64" r="8"  fill="url(#a)" opacity="0.8"/>
  <circle cx="22"  cy="92" r="8"  fill="url(#a)" opacity="0.8"/>
  <circle cx="64"  cy="24" r="9"  fill="url(#a)" opacity="0.9"/>
  <circle cx="64"  cy="56" r="9"  fill="url(#a)" opacity="0.9"/>
  <circle cx="64"  cy="88" r="9"  fill="url(#a)" opacity="0.9"/>
  <circle cx="106" cy="44" r="10" fill="url(#a)"/>
  <circle cx="106" cy="84" r="10" fill="url(#a)"/>
</svg>
